<?xml version="1.0" encoding="utf-8"?>
<!-- Generator: Adobe Illustrator 23.0.3, SVG Export Plug-In . SVG Version: 6.00 Build 0)  -->
<svg version="1.1" id="Layer_1" xmlns="http://www.w3.org/2000/svg" xmlns:xlink="http://www.w3.org/1999/xlink" x="0px" y="0px"
	 width="158.6px" height="11.9px" viewBox="0 0 158.6 11.9" style="enable-background:new 0 0 158.6 11.9;" xml:space="preserve">
<style type="text/css">
	.st0{fill:#60681D;}
</style>
<g>
	<path class="st0" d="M3,8.2c0.4,0,0.7-0.1,0.9-0.3c0.2-0.2,0.4-0.5,0.4-0.8h1.4c0,0.4-0.1,0.8-0.4,1.1C5,8.5,4.7,8.8,4.3,9
		C3.9,9.3,3.5,9.4,3,9.4c-0.9,0-1.6-0.3-2.2-0.9S0,7.1,0,6.1V5.9c0-1,0.3-1.8,0.8-2.4S2.1,2.6,3,2.6c0.8,0,1.4,0.2,1.9,0.7
		s0.7,1,0.8,1.8H4.3c0-0.4-0.1-0.7-0.4-0.9C3.6,3.9,3.3,3.8,3,3.8C2.5,3.8,2.1,4,1.9,4.3S1.5,5.2,1.5,5.9v0.2c0,0.7,0.1,1.2,0.4,1.6
		C2.1,8.1,2.5,8.2,3,8.2z"/>
	<path class="st0" d="M10.2,4.1c-0.2,0-0.4,0-0.6,0C8.9,4,8.5,4.3,8.2,4.8v4.5H6.8V2.7h1.4v0.7C8.5,2.9,9,2.6,9.7,2.6
		c0.2,0,0.4,0,0.5,0.1V4.1z"/>
	<path class="st0" d="M14,9.4c-0.9,0-1.7-0.3-2.3-0.9s-0.9-1.4-0.9-2.3V6c0-0.7,0.1-1.2,0.4-1.8c0.3-0.5,0.6-0.9,1.1-1.2
		s1-0.4,1.5-0.4c0.9,0,1.6,0.3,2.1,0.9c0.5,0.6,0.7,1.4,0.7,2.4v0.6h-4.3c0,0.5,0.2,1,0.5,1.3s0.7,0.5,1.2,0.5
		c0.7,0,1.2-0.3,1.6-0.8l0.8,0.8c-0.3,0.4-0.6,0.7-1,0.9C15,9.3,14.5,9.4,14,9.4z M13.8,3.8c-0.4,0-0.7,0.1-1,0.4
		c-0.2,0.3-0.4,0.7-0.5,1.2h2.8V5.3c0-0.5-0.2-0.9-0.4-1.1C14.5,3.9,14.2,3.8,13.8,3.8z"/>
	<path class="st0" d="M21.7,9.3c-0.1-0.1-0.1-0.3-0.2-0.6c-0.5,0.5-1,0.7-1.7,0.7s-1.2-0.2-1.6-0.6S17.5,8,17.5,7.5
		c0-0.7,0.3-1.2,0.8-1.6s1.3-0.6,2.2-0.6h0.9V4.9c0-0.3-0.1-0.6-0.3-0.8c-0.2-0.2-0.5-0.3-0.9-0.3c-0.3,0-0.6,0.1-0.8,0.3
		c-0.2,0.2-0.3,0.4-0.3,0.6h-1.5c0-0.4,0.1-0.7,0.4-1c0.2-0.3,0.6-0.6,1-0.7s0.9-0.3,1.4-0.3c0.8,0,1.4,0.2,1.8,0.6
		c0.5,0.4,0.7,0.9,0.7,1.6v3c0,0.6,0.1,1.1,0.2,1.4v0.1L21.7,9.3L21.7,9.3z M20,8.2c0.3,0,0.6-0.1,0.8-0.2c0.3-0.1,0.4-0.3,0.6-0.6
		V6.2h-0.8c-0.5,0-1,0.1-1.2,0.3C19.2,6.7,19,7,19,7.3s0.1,0.5,0.3,0.7C19.5,8.2,19.7,8.2,20,8.2z"/>
	<path class="st0" d="M26.3,1.2v1.6h1.2v1.1h-1.2v3.7c0,0.2,0,0.4,0.1,0.5c0.1,0.1,0.3,0.2,0.5,0.2s0.3,0,0.5-0.1v1.1
		c-0.3,0.1-0.7,0.1-1,0.1c-1.1,0-1.7-0.6-1.7-1.9V3.8h-1.1V2.7h1.1V1.2H26.3z"/>
	<path class="st0" d="M31.5,9.4c-0.9,0-1.7-0.3-2.3-0.9c-0.6-0.6-0.9-1.4-0.9-2.3V6c0-0.7,0.1-1.2,0.4-1.8C29,3.7,29.3,3.3,29.8,3
		s1-0.4,1.5-0.4c0.9,0,1.6,0.3,2.1,0.9s0.7,1.4,0.7,2.4v0.6h-4.3c0,0.5,0.2,1,0.5,1.3c0.3,0.3,0.7,0.5,1.2,0.5
		c0.7,0,1.2-0.3,1.6-0.8L34,8.2c-0.3,0.4-0.6,0.7-1,0.9C32.5,9.3,32,9.4,31.5,9.4z M31.3,3.8c-0.4,0-0.7,0.1-1,0.4
		c-0.2,0.3-0.4,0.7-0.5,1.2h2.8V5.3c0-0.5-0.2-0.9-0.4-1.1C32,3.9,31.7,3.8,31.3,3.8z"/>
	<path class="st0" d="M34.9,6c0-1,0.2-1.8,0.7-2.4s1.1-0.9,1.9-0.9c0.7,0,1.3,0.2,1.7,0.7V0h1.5v9.3h-1.3l-0.1-0.7
		c-0.4,0.5-1,0.8-1.8,0.8s-1.4-0.3-1.9-0.9C35.2,7.9,34.9,7,34.9,6z M36.4,6.1c0,0.7,0.1,1.2,0.4,1.6c0.3,0.4,0.6,0.6,1.1,0.6
		c0.6,0,1-0.3,1.3-0.8V4.6c-0.3-0.5-0.7-0.8-1.3-0.8c-0.5,0-0.8,0.2-1.1,0.6C36.5,4.8,36.4,5.3,36.4,6.1z"/>
	<path class="st0" d="M51,6.1c0,1-0.2,1.8-0.7,2.4s-1.1,0.9-1.9,0.9c-0.8,0-1.4-0.3-1.8-0.8l-0.1,0.7h-1.3V0h1.5v3.4
		c0.4-0.5,1-0.7,1.7-0.7c0.8,0,1.4,0.3,1.9,0.9C50.8,4.1,51,4.9,51,6.1L51,6.1z M49.6,6c0-0.7-0.1-1.2-0.4-1.6
		C49,4,48.6,3.9,48.1,3.9c-0.6,0-1.1,0.3-1.3,0.8v2.7c0.3,0.6,0.7,0.9,1.4,0.9c0.5,0,0.8-0.2,1.1-0.5c0.3-0.3,0.4-0.9,0.4-1.6V6
		H49.6z"/>
	<path class="st0" d="M54.6,7.2l1.3-4.4h1.6l-2.6,7.5c-0.4,1.1-1.1,1.7-2,1.7c-0.2,0-0.4,0-0.7-0.1v-1.1h0.3c0.4,0,0.6-0.1,0.8-0.2
		c0.2-0.1,0.3-0.4,0.4-0.7l0.2-0.6l-2.3-6.5h1.6L54.6,7.2z"/>
	<path class="st0" d="M66.4,7.2H63l-0.7,2h-1.6L64,0.4h1.4l3.3,8.8h-1.6L66.4,7.2z M63.5,6H66l-1.3-3.7L63.5,6z"/>
	<path class="st0" d="M70.7,2.7v0.8c0.5-0.6,1.1-0.9,1.9-0.9c1.4,0,2.1,0.8,2.1,2.3v4.3h-1.5V5c0-0.4-0.1-0.7-0.3-0.9
		c-0.2-0.2-0.5-0.3-0.9-0.3c-0.6,0-1,0.3-1.3,0.8v4.7h-1.5V2.7H70.7z"/>
	<path class="st0" d="M75.9,6c0-1,0.2-1.8,0.7-2.4s1.1-0.9,1.9-0.9c0.7,0,1.3,0.2,1.7,0.7V0h1.5v9.3h-1.3l-0.1-0.7
		c-0.4,0.5-1,0.8-1.8,0.8s-1.4-0.3-1.9-0.9C76.2,7.9,75.9,7,75.9,6z M77.4,6.1c0,0.7,0.1,1.2,0.4,1.6C78,8,78.4,8.2,78.9,8.2
		c0.6,0,1-0.3,1.3-0.8V4.6c-0.3-0.5-0.7-0.8-1.3-0.8c-0.5,0-0.8,0.2-1.1,0.6C77.5,4.8,77.4,5.3,77.4,6.1z"/>
	<path class="st0" d="M86.6,4.1c-0.2,0-0.4,0-0.6,0c-0.7,0-1.1,0.3-1.4,0.8v4.5h-1.5V2.7h1.4v0.7c0.4-0.6,0.8-0.9,1.5-0.9
		c0.2,0,0.4,0,0.5,0.1L86.6,4.1z"/>
	<path class="st0" d="M89.1,8.1h3.5v1.2h-5.3v-1l3.3-4.4h-3.3V2.7h5.1v0.9L89.1,8.1z"/>
	<path class="st0" d="M96.7,9.4c-0.9,0-1.7-0.3-2.3-0.9c-0.6-0.6-0.9-1.4-0.9-2.3V6c0-0.7,0.1-1.2,0.4-1.8C94.2,3.7,94.5,3.3,95,3
		s1-0.4,1.5-0.4c0.9,0,1.6,0.3,2.1,0.9C99,4,99.3,4.8,99.3,5.9v0.6H95c0,0.5,0.2,1,0.5,1.3c0.3,0.3,0.7,0.5,1.2,0.5
		c0.7,0,1.2-0.3,1.6-0.8l0.8,0.8c-0.3,0.4-0.6,0.7-1,0.9S97.2,9.4,96.7,9.4z M96.5,3.8c-0.4,0-0.7,0.1-1,0.4
		c-0.2,0.3-0.4,0.7-0.5,1.2h2.8V5.3c0-0.5-0.2-0.9-0.4-1.1C97.2,4,96.9,3.8,96.5,3.8z"/>
	<path class="st0" d="M102,2.7v7.1c0,0.7-0.2,1.2-0.5,1.5c-0.3,0.4-0.8,0.5-1.5,0.5c-0.3,0-0.5,0-0.8-0.1v-1.2
		c0.2,0,0.3,0.1,0.5,0.1c0.5,0,0.7-0.3,0.8-0.8V2.7H102z M100.4,1c0-0.2,0.1-0.4,0.2-0.6c0.1-0.1,0.3-0.2,0.6-0.2
		c0.3,0,0.5,0.1,0.6,0.2C102,0.6,102,0.8,102,1s-0.1,0.4-0.2,0.6c-0.1,0.1-0.4,0.2-0.6,0.2c-0.3,0-0.5-0.1-0.6-0.2
		C100.4,1.5,100.4,1.3,100.4,1z"/>
	<path class="st0" d="M108.3,6v3.3h-1.5V0.5h3.4c1,0,1.8,0.3,2.3,0.8c0.6,0.5,0.9,1.2,0.9,2c0,0.9-0.3,1.5-0.8,2
		C112,5.8,111.2,6,110.2,6H108.3z M108.3,4.8h1.8c0.5,0,1-0.1,1.2-0.4c0.3-0.3,0.4-0.6,0.4-1.1s-0.1-0.9-0.4-1.1s-0.7-0.4-1.2-0.4
		h-1.9L108.3,4.8L108.3,4.8z"/>
	<path class="st0" d="M118.4,9.3c-0.1-0.1-0.1-0.3-0.2-0.6c-0.5,0.5-1,0.7-1.7,0.7s-1.2-0.2-1.6-0.6s-0.6-0.8-0.6-1.4
		c0-0.7,0.3-1.2,0.8-1.6c0.5-0.4,1.3-0.6,2.2-0.6h0.9V4.9c0-0.3-0.1-0.6-0.3-0.8c-0.2-0.2-0.5-0.3-0.9-0.3c-0.3,0-0.6,0.1-0.8,0.3
		c-0.2,0.2-0.3,0.4-0.3,0.6h-1.5c0-0.4,0.1-0.7,0.4-1c0.2-0.3,0.6-0.6,1-0.7s0.9-0.3,1.4-0.3c0.8,0,1.4,0.2,1.8,0.6
		c0.5,0.4,0.7,0.9,0.7,1.6v3c0,0.6,0.1,1.1,0.2,1.4v0.1L118.4,9.3L118.4,9.3z M116.8,8.2c0.3,0,0.6-0.1,0.8-0.2
		c0.3-0.1,0.4-0.3,0.6-0.6V6.2h-0.8c-0.5,0-1,0.1-1.2,0.3c-0.3,0.2-0.4,0.5-0.4,0.8s0.1,0.5,0.3,0.7C116.3,8.2,116.4,8.2,116.8,8.2z
		"/>
	<path class="st0" d="M126.9,6.1c0,1-0.2,1.8-0.7,2.4s-1.1,0.9-1.8,0.9c-0.7,0-1.3-0.2-1.7-0.7v3.1h-1.5V2.7h1.4l0.1,0.7
		c0.4-0.5,1-0.8,1.8-0.8s1.4,0.3,1.9,0.9C126.7,4.1,126.9,4.9,126.9,6.1L126.9,6.1z M125.4,6c0-0.7-0.1-1.2-0.4-1.6
		s-0.6-0.6-1.1-0.6c-0.6,0-1,0.2-1.3,0.7v2.9c0.3,0.5,0.7,0.8,1.3,0.8c0.5,0,0.8-0.2,1.1-0.6C125.3,7.3,125.4,6.7,125.4,6z"/>
	<path class="st0" d="M131.6,4.1c-0.2,0-0.4,0-0.6,0c-0.7,0-1.1,0.3-1.4,0.8v4.5h-1.5V2.7h1.4v0.7c0.4-0.6,0.8-0.9,1.5-0.9
		c0.2,0,0.4,0,0.5,0.1L131.6,4.1z"/>
	<path class="st0" d="M132,6c0-0.6,0.1-1.2,0.4-1.7c0.3-0.5,0.6-0.9,1.1-1.2s1-0.4,1.6-0.4c0.9,0,1.6,0.3,2.1,0.9
		c0.6,0.6,0.8,1.3,0.9,2.3v0.3c0,0.6-0.1,1.2-0.4,1.7c-0.2,0.5-0.6,0.9-1.1,1.2s-1,0.4-1.6,0.4c-0.9,0-1.7-0.3-2.2-0.9
		C132.3,7.9,132,7.1,132,6L132,6z M133.5,6.1c0,0.7,0.1,1.2,0.4,1.6c0.3,0.4,0.7,0.6,1.2,0.6s0.9-0.2,1.2-0.6c0.3-0.4,0.4-1,0.4-1.7
		s-0.1-1.2-0.4-1.6c-0.3-0.4-0.7-0.6-1.2-0.6S134.2,4,134,4.4S133.5,5.3,133.5,6.1z"/>
	<path class="st0" d="M142,8.2c0.4,0,0.7-0.1,0.9-0.3c0.2-0.2,0.4-0.5,0.4-0.8h1.4c0,0.4-0.1,0.8-0.4,1.1c-0.2,0.4-0.6,0.6-1,0.8
		s-0.8,0.3-1.3,0.3c-0.9,0-1.6-0.3-2.2-0.9S139,7.1,139,6.1V5.9c0-1,0.3-1.8,0.8-2.4c0.5-0.6,1.3-0.9,2.2-0.9c0.8,0,1.4,0.2,1.9,0.7
		s0.7,1,0.8,1.8h-1.4c0-0.4-0.1-0.7-0.4-0.9c-0.2-0.2-0.5-0.4-0.9-0.4c-0.5,0-0.8,0.2-1.1,0.5s-0.4,0.9-0.4,1.6v0.2
		c0,0.7,0.1,1.2,0.4,1.6C141.2,8.1,141.5,8.2,142,8.2z"/>
	<path class="st0" d="M147.9,6.5l-0.7,0.7v2.1h-1.5V0h1.5v5.4l0.5-0.6l1.8-2h1.8l-2.4,2.7l2.7,3.8h-1.7L147.9,6.5z"/>
	<path class="st0" d="M152.3,1c0-0.2,0.1-0.4,0.2-0.6c0.1-0.1,0.3-0.2,0.6-0.2s0.5,0.1,0.6,0.2s0.2,0.3,0.2,0.6
		c0,0.2-0.1,0.4-0.2,0.6c-0.1,0.1-0.4,0.2-0.6,0.2c-0.3,0-0.5-0.1-0.6-0.2C152.3,1.5,152.3,1.3,152.3,1z M153.8,9.3h-1.5V2.7h1.5
		V9.3z"/>
</g>
</svg>
