<?xml version="1.0" encoding="utf-8"?>
<!-- Generator: Adobe Illustrator 16.0.0, SVG Export Plug-In . SVG Version: 6.00 Build 0)  -->
<!DOCTYPE svg PUBLIC "-//W3C//DTD SVG 1.1//EN" "http://www.w3.org/Graphics/SVG/1.1/DTD/svg11.dtd">
<svg version="1.1" id="Layer_1" xmlns="http://www.w3.org/2000/svg" xmlns:xlink="http://www.w3.org/1999/xlink" x="0px" y="0px"
	 width="155.25px" height="11.561px" viewBox="16.895 34.593 155.25 11.561" enable-background="new 16.895 34.593 155.25 11.561"
	 xml:space="preserve">
<metadata><?xpacket begin="﻿" id="W5M0MpCehiHzreSzNTczkc9d"?>
<x:xmpmeta xmlns:x="adobe:ns:meta/" x:xmptk="Adobe XMP Core 5.3-c011 66.145661, 2012/02/06-14:56:27        ">
   <rdf:RDF xmlns:rdf="http://www.w3.org/1999/02/22-rdf-syntax-ns#">
      <rdf:Description rdf:about=""
            xmlns:dc="http://purl.org/dc/elements/1.1/">
         <dc:format>image/svg+xml</dc:format>
         <dc:title>
            <rdf:Alt>
               <rdf:li xml:lang="x-default">Print</rdf:li>
            </rdf:Alt>
         </dc:title>
      </rdf:Description>
      <rdf:Description rdf:about=""
            xmlns:xmp="http://ns.adobe.com/xap/1.0/"
            xmlns:xmpGImg="http://ns.adobe.com/xap/1.0/g/img/">
         <xmp:MetadataDate>2019-03-16T16:45:18+01:00</xmp:MetadataDate>
         <xmp:ModifyDate>2019-03-16T16:45:18+01:00</xmp:ModifyDate>
         <xmp:CreateDate>2019-03-16T16:45:18+01:00</xmp:CreateDate>
         <xmp:CreatorTool>Adobe Illustrator CS6 (Macintosh)</xmp:CreatorTool>
         <xmp:Thumbnails>
            <rdf:Alt>
               <rdf:li rdf:parseType="Resource">
                  <xmpGImg:width>256</xmpGImg:width>
                  <xmpGImg:height>20</xmpGImg:height>
                  <xmpGImg:format>JPEG</xmpGImg:format>
                  <xmpGImg:image>/9j/4AAQSkZJRgABAgEASABIAAD/7QAsUGhvdG9zaG9wIDMuMAA4QklNA+0AAAAAABAASAAAAAEA&#xA;AQBIAAAAAQAB/+4ADkFkb2JlAGTAAAAAAf/bAIQABgQEBAUEBgUFBgkGBQYJCwgGBggLDAoKCwoK&#xA;DBAMDAwMDAwQDA4PEA8ODBMTFBQTExwbGxscHx8fHx8fHx8fHwEHBwcNDA0YEBAYGhURFRofHx8f&#xA;Hx8fHx8fHx8fHx8fHx8fHx8fHx8fHx8fHx8fHx8fHx8fHx8fHx8fHx8fHx8f/8AAEQgAFAEAAwER&#xA;AAIRAQMRAf/EAaIAAAAHAQEBAQEAAAAAAAAAAAQFAwIGAQAHCAkKCwEAAgIDAQEBAQEAAAAAAAAA&#xA;AQACAwQFBgcICQoLEAACAQMDAgQCBgcDBAIGAnMBAgMRBAAFIRIxQVEGE2EicYEUMpGhBxWxQiPB&#xA;UtHhMxZi8CRygvElQzRTkqKyY3PCNUQnk6OzNhdUZHTD0uIIJoMJChgZhJRFRqS0VtNVKBry4/PE&#xA;1OT0ZXWFlaW1xdXl9WZ2hpamtsbW5vY3R1dnd4eXp7fH1+f3OEhYaHiImKi4yNjo+Ck5SVlpeYmZ&#xA;qbnJ2en5KjpKWmp6ipqqusra6voRAAICAQIDBQUEBQYECAMDbQEAAhEDBCESMUEFURNhIgZxgZEy&#xA;obHwFMHR4SNCFVJicvEzJDRDghaSUyWiY7LCB3PSNeJEgxdUkwgJChgZJjZFGidkdFU38qOzwygp&#xA;0+PzhJSktMTU5PRldYWVpbXF1eX1RlZmdoaWprbG1ub2R1dnd4eXp7fH1+f3OEhYaHiImKi4yNjo&#xA;+DlJWWl5iZmpucnZ6fkqOkpaanqKmqq6ytrq+v/aAAwDAQACEQMRAD8A9PtfgElYy0amhfNZLtIA&#xA;mokxHVuGHz3XSXqq6qFL815LTrv7ZZl14jIAAy4hYRHFYdJd8eKiMtIwBKDtjk13DQESZkXXcoxX&#xA;12bW8jMJkoQVNCveuGOvicZnR26KcRumkvCz8GjKuRVQe+Rx665cJiRKrHmpxbXay2uZWlkDg8Qe&#xA;/wCzSu2VaTVTlOQlyH+x5sskAAKb+vrWvpt6Vac8l/KQ58J4O9Hg+e66W7CSemiGRqVNPDLc2u4Z&#xA;cMRxFEcViyaWaeaiU+LZR2WbEj5ss/RbcuUvo2CliF2UdTWoyGryGGpiQL9PL5pxi4FUF6DG7cCG&#xA;SnJK+OXx7QuEjw7x5hicW435rjdrWIKtTL2r0yw60egAXx/Yjw+fkr5mktSXR3En1gSkn0nYqB2z&#xA;QYtTPxRM/RI05UoDhrqi57n0nVeBYt0pmz1Or8KQjV20wx8QtbFeK/PmpQxipB8Mjh1wlxcQ4TFM&#xA;sVVW9oa7uTNEP3ZVeVVY9DSua3W6s5cY9JAvYt2PHwnmiZbzhKYxGWYDanfNjm13BMwEST5NMcVi&#xA;7dJecW4Ihd6VYDtjl11HhjEylW/kscV7k0766nBHCnizcT7HB/KEeGMgNpGvcvhGyG/rac5Vp/dg&#xA;mvjTJ/no8Uo19A+a+EaB71SGT1I1enHl2y/Bl8SAlVWwlGjSCRfUnmDSsgVjTeg6nNRCPiZJiUzG&#xA;ievmXIJoCgqWtyRHJzJdYyOLdzXL9HqiIS4jxCP2scmPcV1VI7zlIqPGU5/ZJ75di13FIRlEx4uT&#xA;CWKhYKw35q4WItwPxEHag79Mrl2kbIECeFkMPmve9RY43Ckh/vFMsydoRjGMgLEmIxEkhzXgVAWR&#xA;g7Gip3wy1wjEExPEeQ6qMVnm3Ddq5ZXUxugqQfDJYNaJkiQ4ZRRLHXLdT/SA2YxsIiaB8oHaY5mJ&#xA;4O9n4PnutMqR30zsdggp7/Zyo5o49TOR/m/8SnhJgA3cTc7ZXdGUFhxAND0Ptk9Vn4sIlIEerv8A&#xA;2LCNSoLIjPArQiIuSaq1KrlWE5cMTjEOI38Ey4ZG7VCkn1yFiuwSjED4QaHLzjn+YgSP4d65dWNj&#xA;gPvWXULi49XizI3Xh1G1Mp1mCQy8dExPdzZY5jhpr0pVtnMSsjMwqCasRg8GYwyMBKJJ+NLxDiFt&#xA;RRt9ZjdY3VO5ap38chhxnxoyEZCPmmR9JFr40kE1xGUIEtaPTbv/AFy7FjmMmSBB9d79Ov62MiKB&#xA;7lFYHA9NonLV2oaL+rMSGnkBwyhIn7GwzHMEKzLJBc+oqF0ZQop7AD+GZc4zw5uIRMokV936msES&#xA;jVr7FXUSc1KktWhy7s6EgJcQqyxzEbUtuPUW7SVYy4Vd6D55DVccc8ZiJkBH9aYUYEEutonkeaSR&#xA;SgkFAD74NJhlOU5yHCJbLkkAAB0U7GJjOxbf0gVHzJOUdnYichJ/g2/H2s80tveirsuIGCAszbbC&#xA;vXNlrZSGMiIJJ22acQHFuhnsphb/AGyafEI6d810+z8gxfVdb8NNwyji5L6SvLbuUYED46g7HLan&#xA;OeORB89mOwBDRhkae4AUgMtFJGxO3fGWCUsuTbnHb7FEgIhSf12t1h9FqodzQ+/9cxMniyxDHwS9&#xA;JZjhErtEqj/X2biePH7VNu2bGMJfmjKtuHn8mokcFKM8Lrcs5VmRuhTrmJqMEo5TKpGJ/mtkJgxp&#xA;cbc/U2Coyty5BTuf86ZM6U/lyBEg3dcz+KY8fr5qT20whRwpMj19QU33zHyaTIMcZAHild/FmMgs&#xA;jomKKFRVHRQB92b7HDhiB3OKTZtBxWqvPMZUNORKk1Hc5qcGkE8szOJq9uY6lvlkqIoq00RS3ZYB&#xA;xPgOvvmZqMJjiIxCvc1wlcvUhEjYzQsI3ABHImp3zV48UvEgRGQ33tvMhR3Do5HRrgLGX5kjbt1x&#xA;xZZRlkAiZcX7VlEEDdf6Eqx244kkNVqCtKkdct/LTjDGKN8Vny5I4wSVW7SQSxzIpfh1Udcytbjm&#xA;JxyRHFw9GvGRRBWLHJPLJIVMYZSq18SKZTDFPNOUyOEGNbsjIRAHNqJ7hI1gENWB+0w+GhORwzyx&#xA;gMYhuD15JkIk3bU1q8tzLsQOIKtTYkAbZHPpJZM0tjy27roLDIBEOnM0tooMbeorCood9jvh1ByZ&#xA;MABieIS7vI7rCoy57I/N24zsVdirsVdirsVdirsVdirsVWT09F61pT9nr9GU6ivDN3y6c2UOanZe&#xA;j6P7qtK/FXrXMfQeH4fo+N82eW73V8zmp2KuxV2KuxV2KuxV2KuxV2KuxV2KuxVD2vo+pN6fKtfj&#xA;5UpWp6UzX6Lw+OfDd3vfx5NuS6FojNg1OxV2KuxV2KuxV//Z</xmpGImg:image>
               </rdf:li>
            </rdf:Alt>
         </xmp:Thumbnails>
      </rdf:Description>
      <rdf:Description rdf:about=""
            xmlns:xmpMM="http://ns.adobe.com/xap/1.0/mm/"
            xmlns:stRef="http://ns.adobe.com/xap/1.0/sType/ResourceRef#"
            xmlns:stEvt="http://ns.adobe.com/xap/1.0/sType/ResourceEvent#">
         <xmpMM:InstanceID>xmp.iid:0480117407206811822AC8DDB666CB0D</xmpMM:InstanceID>
         <xmpMM:DocumentID>xmp.did:0480117407206811822AC8DDB666CB0D</xmpMM:DocumentID>
         <xmpMM:OriginalDocumentID>uuid:5D20892493BFDB11914A8590D31508C8</xmpMM:OriginalDocumentID>
         <xmpMM:RenditionClass>proof:pdf</xmpMM:RenditionClass>
         <xmpMM:DerivedFrom rdf:parseType="Resource">
            <stRef:instanceID>xmp.iid:0380117407206811822AC8DDB666CB0D</stRef:instanceID>
            <stRef:documentID>xmp.did:0380117407206811822AC8DDB666CB0D</stRef:documentID>
            <stRef:originalDocumentID>uuid:5D20892493BFDB11914A8590D31508C8</stRef:originalDocumentID>
            <stRef:renditionClass>proof:pdf</stRef:renditionClass>
         </xmpMM:DerivedFrom>
         <xmpMM:History>
            <rdf:Seq>
               <rdf:li rdf:parseType="Resource">
                  <stEvt:action>saved</stEvt:action>
                  <stEvt:instanceID>xmp.iid:0380117407206811822AC8DDB666CB0D</stEvt:instanceID>
                  <stEvt:when>2019-03-16T16:44:19+01:00</stEvt:when>
                  <stEvt:softwareAgent>Adobe Illustrator CS6 (Macintosh)</stEvt:softwareAgent>
                  <stEvt:changed>/</stEvt:changed>
               </rdf:li>
               <rdf:li rdf:parseType="Resource">
                  <stEvt:action>saved</stEvt:action>
                  <stEvt:instanceID>xmp.iid:0480117407206811822AC8DDB666CB0D</stEvt:instanceID>
                  <stEvt:when>2019-03-16T16:45:18+01:00</stEvt:when>
                  <stEvt:softwareAgent>Adobe Illustrator CS6 (Macintosh)</stEvt:softwareAgent>
                  <stEvt:changed>/</stEvt:changed>
               </rdf:li>
            </rdf:Seq>
         </xmpMM:History>
      </rdf:Description>
      <rdf:Description rdf:about=""
            xmlns:illustrator="http://ns.adobe.com/illustrator/1.0/">
         <illustrator:StartupProfile>Print</illustrator:StartupProfile>
      </rdf:Description>
      <rdf:Description rdf:about=""
            xmlns:xmpTPg="http://ns.adobe.com/xap/1.0/t/pg/"
            xmlns:stDim="http://ns.adobe.com/xap/1.0/sType/Dimensions#"
            xmlns:xmpG="http://ns.adobe.com/xap/1.0/g/">
         <xmpTPg:HasVisibleOverprint>False</xmpTPg:HasVisibleOverprint>
         <xmpTPg:HasVisibleTransparency>True</xmpTPg:HasVisibleTransparency>
         <xmpTPg:NPages>1</xmpTPg:NPages>
         <xmpTPg:MaxPageSize rdf:parseType="Resource">
            <stDim:w>155.250000</stDim:w>
            <stDim:h>11.560547</stDim:h>
            <stDim:unit>Pixels</stDim:unit>
         </xmpTPg:MaxPageSize>
         <xmpTPg:PlateNames>
            <rdf:Seq>
               <rdf:li>Cyan</rdf:li>
               <rdf:li>Magenta</rdf:li>
               <rdf:li>Yellow</rdf:li>
            </rdf:Seq>
         </xmpTPg:PlateNames>
         <xmpTPg:SwatchGroups>
            <rdf:Seq>
               <rdf:li rdf:parseType="Resource">
                  <xmpG:groupName>Default Swatch Group</xmpG:groupName>
                  <xmpG:groupType>0</xmpG:groupType>
               </rdf:li>
            </rdf:Seq>
         </xmpTPg:SwatchGroups>
      </rdf:Description>
      <rdf:Description rdf:about=""
            xmlns:pdf="http://ns.adobe.com/pdf/1.3/">
         <pdf:Producer>Adobe PDF library 10.01</pdf:Producer>
      </rdf:Description>
   </rdf:RDF>
</x:xmpmeta>
                                                                                                    
                                                                                                    
                                                                                                    
                                                                                                    
                                                                                                    
                                                                                                    
                                                                                                    
                                                                                                    
                                                                                                    
                                                                                                    
                                                                                                    
                                                                                                    
                                                                                                    
                                                                                                    
                                                                                                    
                                                                                                    
                                                                                                    
                                                                                                    
                                                                                                    
                                                                                                    
                           
<?xpacket end="w"?>
	</metadata>
<g opacity="0.4">
	<path fill="#FFD500" d="M19.795,42.345c0.312,0,0.565-0.086,0.762-0.258s0.297-0.4,0.305-0.687h1.589
		c-0.005,0.431-0.121,0.823-0.353,1.182c-0.23,0.357-0.546,0.635-0.946,0.832c-0.399,0.196-0.843,0.296-1.326,0.296
		c-0.906,0-1.621-0.288-2.146-0.864s-0.785-1.372-0.785-2.388v-0.111c0-0.977,0.26-1.756,0.779-2.338
		c0.519-0.582,1.231-0.873,2.139-0.873c0.793,0,1.43,0.226,1.907,0.677c0.479,0.451,0.722,1.053,0.729,1.803h-1.589
		c-0.008-0.33-0.108-0.599-0.305-0.805s-0.453-0.31-0.772-0.31c-0.396,0-0.692,0.144-0.895,0.432
		c-0.201,0.287-0.302,0.754-0.302,1.399v0.176c0,0.653,0.1,1.123,0.299,1.408C19.086,42.202,19.389,42.345,19.795,42.345z"/>
	<path fill="#FFD500" d="M27.159,38.841c-0.23-0.031-0.435-0.047-0.609-0.047c-0.641,0-1.062,0.217-1.26,0.649v4.148h-1.693v-6.34
		h1.6l0.048,0.756c0.34-0.582,0.811-0.873,1.411-0.873c0.188,0,0.363,0.025,0.527,0.076L27.159,38.841z"/>
	<path fill="#FFD500" d="M31.071,43.71c-0.93,0-1.687-0.285-2.271-0.855c-0.584-0.569-0.876-1.33-0.876-2.278v-0.164
		c0-0.638,0.123-1.206,0.369-1.708s0.595-0.89,1.046-1.16c0.451-0.271,0.966-0.407,1.544-0.407c0.867,0,1.55,0.273,2.048,0.82
		s0.747,1.321,0.747,2.326v0.69h-4.037c0.055,0.414,0.22,0.746,0.495,0.996s0.624,0.375,1.046,0.375
		c0.652,0,1.162-0.236,1.529-0.709l0.832,0.932c-0.254,0.359-0.599,0.641-1.031,0.842C32.079,43.61,31.598,43.71,31.071,43.71z
		 M30.878,38.501c-0.336,0-0.608,0.114-0.817,0.342s-0.343,0.553-0.4,0.977h2.354v-0.136c-0.008-0.376-0.109-0.668-0.305-0.874
		C31.514,38.604,31.237,38.501,30.878,38.501z"/>
	<path fill="#FFD500" d="M38.493,43.593c-0.078-0.152-0.136-0.342-0.17-0.568c-0.41,0.457-0.943,0.687-1.601,0.687
		c-0.621,0-1.136-0.18-1.544-0.539s-0.612-0.812-0.612-1.359c0-0.672,0.249-1.188,0.747-1.547c0.498-0.358,1.219-0.541,2.159-0.545
		h0.779v-0.363c0-0.293-0.075-0.526-0.227-0.703c-0.15-0.176-0.388-0.264-0.712-0.264c-0.285,0-0.509,0.068-0.671,0.205
		S36.4,38.92,36.4,39.158h-1.692c0-0.367,0.112-0.707,0.34-1.021c0.227-0.312,0.547-0.558,0.961-0.735
		c0.414-0.177,0.879-0.267,1.395-0.267c0.781,0,1.401,0.196,1.86,0.589c0.459,0.394,0.688,0.944,0.688,1.655v2.748
		c0.004,0.602,0.088,1.057,0.252,1.365v0.1H38.493L38.493,43.593z M37.093,42.415c0.25,0,0.48-0.057,0.691-0.167
		c0.211-0.111,0.366-0.262,0.469-0.448v-1.09H37.62c-0.849,0-1.3,0.293-1.354,0.879l-0.006,0.1c0,0.211,0.074,0.386,0.223,0.521
		C36.632,42.346,36.835,42.415,37.093,42.415z"/>
	<path fill="#FFD500" d="M43.461,35.695v1.56h1.084v1.242h-1.084v3.164c0,0.233,0.045,0.401,0.135,0.504
		c0.09,0.102,0.262,0.151,0.516,0.151c0.188,0,0.354-0.014,0.498-0.041v1.283c-0.332,0.103-0.674,0.152-1.024,0.152
		c-1.188,0-1.793-0.601-1.816-1.799v-3.416h-0.926v-1.242h0.926v-1.56L43.461,35.695L43.461,35.695z"/>
	<path fill="#FFD500" d="M48.586,43.71c-0.931,0-1.688-0.285-2.271-0.855c-0.584-0.569-0.876-1.33-0.876-2.278v-0.164
		c0-0.638,0.123-1.206,0.369-1.708s0.595-0.89,1.046-1.16c0.451-0.271,0.966-0.407,1.544-0.407c0.867,0,1.551,0.273,2.048,0.82
		c0.498,0.547,0.747,1.321,0.747,2.326v0.69h-4.037c0.056,0.414,0.221,0.746,0.495,0.996c0.275,0.25,0.624,0.375,1.046,0.375
		c0.652,0,1.162-0.236,1.529-0.709l0.832,0.932c-0.254,0.359-0.598,0.641-1.031,0.842C49.594,43.61,49.113,43.71,48.586,43.71z
		 M48.392,38.501c-0.336,0-0.607,0.114-0.816,0.342s-0.344,0.553-0.401,0.977h2.354v-0.136c-0.008-0.376-0.108-0.668-0.305-0.874
		S48.752,38.501,48.392,38.501z"/>
	<path fill="#FFD500" d="M52.071,40.376c0-0.988,0.223-1.775,0.665-2.361c0.443-0.586,1.051-0.879,1.819-0.879
		c0.617,0,1.127,0.23,1.529,0.691v-3.234h1.699v9h-1.529l-0.082-0.674c-0.422,0.526-0.965,0.791-1.629,0.791
		c-0.746,0-1.345-0.294-1.796-0.882S52.071,41.423,52.071,40.376z M53.764,40.502c0,0.595,0.104,1.051,0.312,1.367
		s0.508,0.476,0.901,0.476c0.523,0,0.894-0.221,1.107-0.663v-2.506c-0.211-0.442-0.576-0.663-1.097-0.663
		C54.172,38.513,53.764,39.176,53.764,40.502z"/>
	<path fill="#FFD500" d="M68.157,40.482c0,1.017-0.218,1.809-0.65,2.376c-0.433,0.568-1.039,0.854-1.816,0.854
		c-0.688,0-1.235-0.265-1.646-0.791l-0.076,0.674h-1.523v-9h1.693v3.229c0.391-0.457,0.904-0.687,1.541-0.687
		c0.773,0,1.38,0.284,1.819,0.854c0.438,0.568,0.659,1.367,0.659,2.398L68.157,40.482L68.157,40.482z M66.464,40.359
		c0-0.641-0.103-1.107-0.305-1.402c-0.203-0.295-0.507-0.442-0.908-0.442c-0.539,0-0.91,0.221-1.113,0.662v2.502
		c0.207,0.445,0.582,0.668,1.125,0.668c0.547,0,0.906-0.27,1.078-0.809C66.423,41.279,66.464,40.886,66.464,40.359z"/>
	<path fill="#FFD500" d="M71.747,41.197l1.172-3.942h1.815l-2.549,7.324l-0.141,0.334c-0.379,0.828-1.004,1.241-1.875,1.241
		c-0.246,0-0.496-0.036-0.75-0.11V44.76l0.258,0.006c0.32,0,0.56-0.049,0.718-0.146c0.158-0.098,0.282-0.261,0.372-0.486
		l0.199-0.521l-2.221-6.356h1.821L71.747,41.197z"/>
	<path fill="#FFD500" d="M83.679,41.835h-3.082l-0.586,1.758h-1.869l3.176-8.531h1.629l3.193,8.531h-1.869L83.679,41.835z
		 M81.072,40.411h2.134l-1.072-3.193L81.072,40.411z"/>
	<path fill="#FFD500" d="M88.564,37.253l0.054,0.731c0.452-0.565,1.061-0.85,1.821-0.85c0.672,0,1.172,0.197,1.5,0.592
		c0.328,0.396,0.496,0.984,0.504,1.771v4.096H90.75v-4.055c0-0.359-0.078-0.62-0.234-0.782s-0.416-0.243-0.779-0.243
		c-0.477,0-0.834,0.203-1.071,0.609v4.471H86.97v-6.34H88.564z"/>
	<path fill="#FFD500" d="M93.643,40.376c0-0.988,0.223-1.775,0.665-2.361c0.443-0.586,1.05-0.879,1.819-0.879
		c0.617,0,1.127,0.23,1.528,0.691v-3.234h1.699v9h-1.528l-0.082-0.674c-0.423,0.526-0.966,0.791-1.629,0.791
		c-0.746,0-1.346-0.294-1.797-0.882C93.868,42.24,93.643,41.423,93.643,40.376z M95.337,40.502c0,0.595,0.104,1.051,0.311,1.367
		s0.508,0.476,0.902,0.476c0.523,0,0.893-0.221,1.107-0.663v-2.506c-0.212-0.442-0.576-0.663-1.097-0.663
		C95.745,38.513,95.337,39.176,95.337,40.502z"/>
	<path fill="#FFD500" d="M104.411,38.841c-0.23-0.031-0.435-0.047-0.609-0.047c-0.641,0-1.061,0.217-1.26,0.649v4.148h-1.693v-6.34
		h1.601l0.047,0.756c0.34-0.582,0.811-0.873,1.412-0.873c0.188,0,0.362,0.025,0.526,0.076L104.411,38.841z"/>
	<path fill="#FFD500" d="M108.323,43.71c-0.931,0-1.688-0.285-2.271-0.855c-0.584-0.569-0.876-1.33-0.876-2.278v-0.164
		c0-0.638,0.123-1.206,0.369-1.708s0.595-0.89,1.046-1.16c0.451-0.271,0.966-0.407,1.544-0.407c0.867,0,1.55,0.273,2.048,0.82
		s0.747,1.321,0.747,2.326v0.69h-4.037c0.056,0.414,0.22,0.746,0.495,0.996s0.624,0.375,1.046,0.375
		c0.652,0,1.162-0.236,1.529-0.709l0.832,0.932c-0.254,0.359-0.599,0.641-1.031,0.842C109.331,43.61,108.85,43.71,108.323,43.71z
		 M108.13,38.501c-0.336,0-0.608,0.114-0.817,0.342s-0.343,0.553-0.4,0.977h2.354v-0.136c-0.008-0.376-0.108-0.668-0.305-0.874
		S108.489,38.501,108.13,38.501z"/>
	<path fill="#FFD500" d="M117.586,41.29l0.832-4.037h1.635l-1.617,6.34h-1.418l-1.201-3.99l-1.2,3.99h-1.412l-1.617-6.34h1.635
		l0.826,4.031l1.16-4.031h1.225L117.586,41.29z"/>
	<path fill="#FFD500" d="M126.107,40.587v3.006h-1.758v-8.531h3.328c0.641,0,1.204,0.117,1.69,0.353
		c0.485,0.234,0.859,0.566,1.121,0.999c0.263,0.432,0.394,0.923,0.394,1.474c0,0.836-0.286,1.495-0.858,1.979
		c-0.571,0.482-1.363,0.724-2.376,0.724h-1.541V40.587z M126.107,39.163h1.57c0.465,0,0.819-0.109,1.063-0.328
		c0.243-0.219,0.365-0.531,0.365-0.938c0-0.418-0.123-0.756-0.369-1.014c-0.245-0.258-0.586-0.391-1.02-0.398h-1.611L126.107,39.163
		L126.107,39.163z"/>
	<path fill="#FFD500" d="M135.833,43.593c-0.078-0.152-0.135-0.342-0.17-0.568c-0.41,0.457-0.943,0.687-1.601,0.687
		c-0.621,0-1.136-0.18-1.544-0.539s-0.611-0.812-0.611-1.359c0-0.672,0.248-1.188,0.746-1.547c0.498-0.358,1.219-0.541,2.159-0.545
		h0.779v-0.363c0-0.293-0.075-0.526-0.226-0.703c-0.151-0.176-0.389-0.264-0.713-0.264c-0.284,0-0.509,0.068-0.671,0.205
		s-0.243,0.324-0.243,0.562h-1.692c0-0.367,0.113-0.707,0.34-1.021c0.227-0.312,0.547-0.558,0.961-0.735
		c0.414-0.177,0.879-0.267,1.396-0.267c0.78,0,1.4,0.196,1.859,0.589c0.459,0.394,0.688,0.944,0.688,1.655v2.748
		c0.004,0.602,0.088,1.057,0.252,1.365v0.1H135.833L135.833,43.593z M134.432,42.415c0.25,0,0.48-0.057,0.691-0.167
		c0.211-0.111,0.367-0.262,0.469-0.448v-1.09h-0.633c-0.849,0-1.299,0.293-1.354,0.879l-0.006,0.1c0,0.211,0.074,0.386,0.223,0.521
		C133.971,42.346,134.175,42.415,134.432,42.415z"/>
	<path fill="#FFD500" d="M144.479,40.482c0,0.978-0.222,1.76-0.665,2.348c-0.442,0.588-1.042,0.882-1.796,0.882
		c-0.641,0-1.158-0.224-1.553-0.668v2.988h-1.693v-8.777h1.57l0.059,0.621c0.41-0.492,0.945-0.738,1.605-0.738
		c0.781,0,1.389,0.289,1.822,0.867c0.433,0.578,0.649,1.375,0.649,2.391L144.479,40.482L144.479,40.482z M142.786,40.359
		c0-0.59-0.104-1.045-0.313-1.364c-0.209-0.32-0.513-0.48-0.911-0.48c-0.531,0-0.896,0.203-1.096,0.609v2.596
		c0.207,0.418,0.576,0.627,1.107,0.627C142.382,42.345,142.786,41.683,142.786,40.359z"/>
	<path fill="#FFD500" d="M149.27,38.841c-0.229-0.031-0.434-0.047-0.608-0.047c-0.642,0-1.062,0.217-1.261,0.649v4.148h-1.692v-6.34
		h1.6l0.047,0.756c0.34-0.582,0.812-0.873,1.412-0.873c0.188,0,0.363,0.025,0.527,0.076L149.27,38.841z"/>
	<path fill="#FFD500" d="M150.002,40.365c0-0.63,0.121-1.189,0.363-1.683c0.241-0.493,0.591-0.873,1.046-1.143
		c0.455-0.271,0.982-0.404,1.585-0.404c0.854,0,1.554,0.262,2.095,0.785c0.541,0.522,0.843,1.233,0.905,2.133l0.012,0.434
		c0,0.974-0.271,1.754-0.814,2.342s-1.271,0.882-2.186,0.882s-1.644-0.293-2.188-0.879c-0.544-0.586-0.816-1.383-0.816-2.392
		L150.002,40.365L150.002,40.365z M151.695,40.485c0,0.604,0.113,1.063,0.341,1.383c0.227,0.318,0.551,0.479,0.973,0.479
		c0.41,0,0.729-0.157,0.961-0.473c0.23-0.314,0.346-0.818,0.346-1.512c0-0.591-0.114-1.049-0.346-1.372
		c-0.229-0.325-0.555-0.487-0.973-0.487c-0.414,0-0.734,0.161-0.961,0.483C151.808,39.308,151.695,39.808,151.695,40.485z"/>
	<path fill="#FFD500" d="M159.867,42.345c0.312,0,0.565-0.086,0.762-0.258s0.297-0.4,0.305-0.687h1.588
		c-0.004,0.431-0.121,0.823-0.352,1.182c-0.231,0.357-0.546,0.635-0.946,0.832c-0.399,0.196-0.843,0.296-1.327,0.296
		c-0.905,0-1.621-0.288-2.145-0.864c-0.524-0.576-0.785-1.372-0.785-2.388v-0.111c0-0.977,0.26-1.756,0.779-2.338
		c0.519-0.582,1.231-0.873,2.139-0.873c0.793,0,1.429,0.226,1.907,0.677c0.478,0.451,0.722,1.053,0.729,1.803h-1.588
		c-0.008-0.33-0.108-0.599-0.305-0.805s-0.453-0.31-0.773-0.31c-0.395,0-0.691,0.144-0.894,0.432
		c-0.201,0.287-0.302,0.754-0.302,1.399v0.176c0,0.653,0.1,1.123,0.299,1.408C159.158,42.202,159.461,42.345,159.867,42.345z"/>
	<path fill="#FFD500" d="M165.97,41.05l-0.609,0.609v1.934h-1.692v-9h1.692v4.986l0.328-0.422l1.623-1.904h2.033l-2.291,2.643
		l2.49,3.697h-1.945L165.97,41.05z"/>
	<path fill="#FFD500" d="M170.247,35.613c0-0.254,0.085-0.463,0.255-0.627s0.4-0.245,0.693-0.245c0.289,0,0.521,0.081,0.691,0.245
		s0.258,0.373,0.258,0.627c0,0.259-0.087,0.47-0.261,0.634s-0.403,0.246-0.688,0.246c-0.284,0-0.515-0.082-0.688-0.246
		S170.247,35.87,170.247,35.613z M172.046,43.593h-1.699v-6.34h1.699V43.593z"/>
</g>
</svg>
